<svg data-v-0dd9719b="" version="1.0" xmlns="http://www.w3.org/2000/svg" xmlns:xlink="http://www.w3.org/1999/xlink" width="100%" height="100%" viewBox="0 0 340.000000 250.000000" preserveAspectRatio="xMidYMid meet" color-interpolation-filters="sRGB" style="margin: auto;"> <rect data-v-0dd9719b="" x="0" y="0" width="100%" height="100%" fill="#fff" fill-opacity="1" class="background"></rect> <rect data-v-0dd9719b="" x="0" y="0" width="100%" height="100%" fill="url(#watermark)" fill-opacity="1" class="watermarklayer"></rect> <g data-v-0dd9719b="" fill="#fe9703" class="icon-text-wrapper icon-svg-group iconsvg" transform="translate(48.1199951171875,98.37375068664551)"><g class="iconsvg-imagesvg" transform="translate(0,11.311923027038574)"><g><rect fill="#fe9703" fill-opacity="0" stroke-width="2" x="0" y="0" width="60" height="30.62865310497971" class="image-rect"></rect> <svg x="0" y="0" width="60" height="30.62865310497971" filtersec="colorsb1811123290" class="image-svg-svg primary" style="overflow: visible;"><svg xmlns="http://www.w3.org/2000/svg" viewBox="-0.0010361671447753906 0.0004601478576660156 221.9564666748047 113.30388641357422"><title>资源 33</title><g><g fill="#fe9703"><path d="M39.54 22.69a39.1 39.1 0 0 1 12.52-15c12.52-8.9 25.86-10.32 39.49-2.97a74.56 74.56 0 0 1 13.87 10.06c21.87 19.45 43.55 39.1 65.31 58.67 6 5.37 12.4 10.06 20.44 11.88 10.28 2.32 19.68.54 27.89-6.35.7-.59 1.46-1.13 2.62-2a29.64 29.64 0 0 1-3.18 17.92c-5.5 10.75-14.72 16.1-26.39 17.86-15.47 2.35-28.64-3.1-40.16-12.66-12.26-10.18-24-21-35.87-31.62C102 55.91 88.05 43.23 73.91 30.75c-9.38-8.28-20.25-11.2-32.54-8.07a10.77 10.77 0 0 1-1.83.01zM137.47 96.05c-1.2 1.88-1.95 3.31-2.93 4.56-11.3 14.39-31.94 16.92-47.88 5.39-6.19-4.5-11.71-9.92-17.45-15-11.33-10.15-22.53-20.39-33.92-30.41-7.21-6.34-15.37-9.43-25-5.94a3.24 3.24 0 0 1-1-.08 6.57 6.57 0 0 1 .33-1.7c5.64-10.54 16.53-21.08 31.75-20.67 7.74.2 14.42 3.35 20.18 8.15 8.51 7.09 16.68 14.6 25 22 9.65 8.61 19.21 17.32 28.92 25.87 4.65 4.08 9.76 7.45 16.23 7.85 1.58.07 3.22-.02 5.77-.02z"></path><path d="M117.82 17.21a32.14 32.14 0 0 1 9-10.15c11.29-8.62 25.26-9.45 37.92-1.64a116 116 0 0 1 15.6 12.15q13.75 12.17 27 24.87a23.43 23.43 0 0 1 7.31 13.31 13.58 13.58 0 0 1-15 15.9c-7.17-.66-12.83-4.19-18-8.8-13.18-11.8-26.3-23.67-39.5-35.44a87.31 87.31 0 0 0-8.22-6.41 19.2 19.2 0 0 0-13.78-3.57 12.07 12.07 0 0 1-2.33-.22zM62.33 104.11a34.09 34.09 0 0 1-14.81 7.7c-17.06 4.52-34.16-1.82-43.07-16C.82 90-1 83.66.56 76.84c2.25-9.84 12.49-13.94 20.64-8 5.32 3.88 10.1 8.52 15 12.91C44.16 88.8 52 95.94 59.92 103a9.2 9.2 0 0 0 2.41 1.11z"></path></g></g></svg></svg> <!----></g></g> <g transform="translate(67,0)"><g data-gra="path-name" fill-rule="" class="tp-name iconsvg-namesvg" transform="translate(0,0)"><g transform="scale(1)"><g><path d="M25.74-31.99L25.74-31.99Q30.15-31.95 32.58-33.44L32.58-33.44Q33.52-34.06 34.22-34.06 34.92-34.06 37.06-32.94 39.2-31.81 39.2-31.21 39.2-30.6 38.52-29.92 37.84-29.25 37.71-28.35 37.57-27.45 37.57-25.09 37.57-22.72 37.73-16.9 37.89-11.07 38.12-8.69 38.34-6.3 38.34-5.04L38.34-5.04Q38.34-1.75 36.83 0.32 35.32 2.38 34.34 2.38 33.34 2.38 32.71 0.85L32.71 0.85Q31.77-1.44 29.79-3.06 27.81-4.68 27.81-5.11 27.81-5.54 28.37-5.54 28.93-5.54 30.31-5.26 31.68-5 32.56-5 33.44-5 33.59-5.47 33.75-5.94 33.75-10.48 33.75-15.03 33.52-20.75L33.52-20.75 33.21-27.99Q33.16-29.56 32.94-29.88 32.71-30.2 32.42-30.31 32.13-30.42 31.77-30.33L31.77-30.33Q29.47-29.88 27.45-29.74L27.45-29.74Q27.31-25.74 27.13-23.58L27.13-23.58Q29.47-24.43 30.38-24.43 31.27-24.43 32.15-23.96 33.03-23.49 33.03-23.04L33.03-23.04Q33.03-22.32 31.34-21.8 29.65-21.29 28.64-21.29 27.63-21.29 27-21.33L27-21.33Q26.82-18.99 26.5-16.2L26.5-16.2Q29.52-17.1 30.53-17.1 31.54-17.1 32.38-16.54 33.21-15.97 33.21-15.43L33.21-15.43Q33.21-14.63 31.45-14.22 29.7-13.81 28.46-13.81 27.22-13.81 26.23-14.08L26.23-14.08Q25.79-11.52 24.84-9.29 23.89-7.06 22.54-5.26 21.2-3.46 19.48-2.07 17.77-0.67 15.77 0.36 13.77 1.4 13.09 1.4L13.09 1.4Q12.82 1.4 12.82 1.21L12.82 1.21Q12.82 0.81 14.22-0.49L14.22-0.49Q18.99-4.86 21.08-10.42 23.18-15.97 23.18-25.24L23.18-25.24Q23.18-29.7 22.48-30.67 21.78-31.63 21.78-32.15 21.78-32.67 22.72-32.67 23.67-32.67 25.74-31.99ZM8.78-28.8L8.78-28.8Q11.56-28.8 13.9-30.06L13.9-30.06Q14.76-30.51 15.48-30.51 16.2-30.51 18.25-29.36 20.29-28.21 20.29-27.56 20.29-26.91 19.75-26.05 19.21-25.2 19.04-23.8 18.86-22.41 18.86-19.17L18.86-19.17 18.9-14.17Q18.9-11.34 17.86-9.65 16.83-7.96 16.02-7.96 15.21-7.96 14.89-9.09 14.58-10.21 14.49-10.96 14.4-11.7 14.13-11.79 13.86-11.88 12.67-11.88 11.47-11.88 9.49-11.7L9.49-11.7Q8.69-8.41 7.42-8.41L7.42-8.41Q6.61-8.41 5.96-10.04 5.31-11.65 5.31-12.13 5.31-12.6 5.63-13.25 5.94-13.9 6.08-15.5 6.21-17.1 6.21-20.56 6.21-24.03 5.92-25.61 5.63-27.18 5.15-27.79 4.68-28.39 4.68-28.75L4.68-28.75Q4.68-29.29 5.76-29.29 6.84-29.29 8.78-28.8ZM9.86-19.17L9.76-14.08Q12.06-14.45 12.82-14.45 13.59-14.45 13.81-14.17 14.04-13.9 14.35-13.9 14.67-13.9 14.85-14.11 15.03-14.31 15.1-15.88 15.16-17.46 15.16-21.67 15.16-25.88 14.96-26.53 14.76-27.18 13.72-27.18L13.72-27.18Q13.46-27.18 12.42-27.02 11.38-26.86 9.81-26.73L9.81-26.73Q9.9-23.31 9.86-21.11L9.86-21.11Q11.97-21.87 12.94-21.87 13.9-21.87 14.38-21.44 14.85-21.02 14.85-20.65L14.85-20.65Q14.85-19.98 13.61-19.55 12.38-19.13 11.34-19.13 10.3-19.13 9.86-19.17L9.86-19.17ZM59.09-28.84L59.09-28.84Q61.38-28.89 66.38-29.81 71.37-30.73 72.58-31.05 73.8-31.36 74.75-32.02 75.69-32.67 76.55-32.67 77.4-32.67 79.76-31.3 82.13-29.92 82.13-29.07L82.13-29.07Q82.13-28.57 81.2-27.81 80.28-27.04 79.81-25.79 79.34-24.52 79-21.51 78.66-18.5 78.66-14.87 78.66-11.25 79.65-8.44 80.64-5.63 82.33-4.18 84.02-2.75 84.64-2.75 85.28-2.75 85.66-3.62 86.04-4.5 86.6-6.84 87.16-9.18 87.7-9.18L87.7-9.18Q88.29-9.18 88.34-6.39 88.38-3.6 88.58-2.11 88.78-0.63 89.3 0.25 89.82 1.13 89.82 1.78 89.82 2.43 89.23 2.9 88.65 3.38 87.7 3.38L87.7 3.38Q85.81 3.38 82.1 1.33 78.39-0.72 76.45-5.04 74.52-9.36 74.52-17.14L74.52-17.14Q74.52-19.62 74.77-22.61 75.02-25.61 75.19-26.59 75.38-27.58 75.38-27.86L75.38-27.86Q75.38-28.57 74.77-28.57 74.16-28.57 69.97-27.92 65.79-27.27 63.88-26.86 61.97-26.46 60.25-26.41L60.25-26.41Q60.44-23.63 60.44-21.2L60.44-21.2Q60.44-14.17 59.09-9 57.73-3.82 53.91-1.06 50.09 1.71 49.05 1.71L49.05 1.71Q48.73 1.71 48.73 1.48L48.73 1.48Q48.73 0.94 50.22-0.63L50.22-0.63Q52.7-3.19 53.89-6.01 55.08-8.82 55.62-12.96 56.16-17.1 56.16-20 56.16-22.9 55.69-25.02 55.22-27.13 54.65-27.77 54.09-28.39 54.09-28.8L54.09-28.8Q54.09-29.43 55.39-29.43 56.7-29.43 59.09-28.84ZM70.06-14.26L70.06-14.26Q71.55-12.55 72.54-11.18 73.53-9.81 73.91-8.82 74.3-7.83 74.3-6.57 74.3-5.31 73.87-4.52 73.44-3.73 72.77-3.73L72.77-3.73Q71.82-3.73 71.14-5.08L71.14-5.08Q70.16-7.25 68.04-10.44L68.04-10.44Q65.16-5.94 61.9-4.21 58.63-2.48 57.55-2.48L57.55-2.48Q57.24-2.48 57.24-2.7L57.24-2.7Q57.24-3.19 58.99-4.72L58.99-4.72Q63.22-8.46 65.88-13.77L65.88-13.77Q63.36-17.73 62.21-19.26 61.06-20.79 61.06-21.33L61.06-21.33Q61.06-21.73 61.63-21.73 62.19-21.73 63.63-20.9 65.07-20.07 67.41-17.32L67.41-17.32Q68.4-20.16 68.4-22.23L68.4-22.23Q68.4-23.36 67.93-24.05 67.45-24.75 67.45-25.43 67.45-26.1 68.53-26.1 69.61-26.1 71.69-25.06 73.75-24.03 73.75-22.95L73.75-22.95Q73.75-22.32 73.1-21.6 72.45-20.88 71.62-18.34 70.78-15.79 70.06-14.26ZM101.25-29.79L101.25-29.79Q104.22-29.7 111.51-30.62 118.8-31.54 120.91-32.58L120.91-32.58Q122.17-33.21 123.19-33.21 124.2-33.21 126.31-31.54 128.43-29.88 128.43-29.02L128.43-29.02Q128.43-28.48 127.48-27.4L127.48-27.4Q127.03-26.86 126.88-25.52 126.72-24.16 126.72-21.58 126.72-18.99 126.94-14.13L126.94-14.13 127.35-4.46Q127.35-1.44 125.75 0.79 124.16 3.01 122.98 3.01L122.98 3.01Q122.17 3.01 121.59 1.84L121.59 1.84Q120.51-0.36 118.13-2.75L118.13-2.75Q116.91-4.05 116.91-4.27 116.91-4.5 117.22-4.5 117.54-4.5 118.96-4.12 120.38-3.73 121.19-3.73 122-3.73 122.24-4.07 122.49-4.41 122.67-6.79 122.85-9.18 122.85-13.23 122.85-17.28 122.63-22.45 122.4-27.63 121.97-28.19 121.55-28.75 120.58-28.75 119.61-28.75 114.19-28.33 108.77-27.9 102.69-27.18L102.69-27.18Q102.42-16.34 101.7-7.74L101.7-7.74Q101.79-7.96 102.56-9.18L102.56-9.18Q104.22-11.7 106.16-16.43L106.16-16.43Q103.14-22.18 103.14-22.52 103.14-22.86 103.28-22.86L103.28-22.86Q103.68-22.86 105.08-21.8 106.47-20.75 107.41-19.89L107.41-19.89Q108.09-21.87 108.09-22.9L108.09-22.9Q108.09-23.27 107.91-24.05 107.73-24.84 107.73-25.45 107.73-26.05 108.22-26.05 108.72-26.05 110.63-25.15 112.55-24.25 112.55-23.65 112.55-23.04 112.07-22.41 111.6-21.78 109.8-17.37L109.8-17.37Q111.73-14.94 111.73-12.78L111.73-12.78Q111.73-12.01 111.33-10.62 110.92-9.22 110.43-9.22L110.43-9.22Q109.62-9.22 107.86-13.14L107.86-13.14Q106.2-10.53 104.22-8.75 102.24-6.97 101.56-6.79L101.56-6.79Q101.25-2.56 100.46-1.06 99.67 0.45 98.78 0.45 97.88 0.45 97.16-1.06 96.44-2.56 96.44-3.62 96.44-4.68 97.09-6.23 97.74-7.79 98.26-12.42 98.78-17.05 98.78-22.03 98.78-27 98.03-27.86 97.29-28.71 97.29-29.34L97.29-29.34Q97.29-30.24 98.73-30.24L98.73-30.24Q99.72-30.24 101.25-29.79ZM118.17-17.19L118.17-17.19Q121.68-13.99 121.68-11.56L121.68-11.56Q121.68-10.66 121.28-9.45 120.87-8.23 120.24-8.23L120.24-8.23Q119.3-8.23 117.9-11.12L117.9-11.12Q117.27-12.42 116.73-13.37L116.73-13.37Q114.88-9 112.57-7.11 110.25-5.22 109.62-5.22L109.62-5.22Q109.44-5.22 109.44-5.4L109.44-5.4Q109.44-5.89 110.75-7.74L110.75-7.74Q112.32-9.95 114.84-16.56L114.84-16.56Q113.72-18.31 112.79-19.66 111.87-21.02 111.87-21.31 111.87-21.6 112.05-21.6L112.05-21.6Q112.45-21.6 114.01-20.5 115.56-19.39 115.74-19.21L115.74-19.21Q116.55-21.87 116.55-23.58L116.55-23.58Q116.55-24.12 116.33-24.91 116.1-25.7 116.1-26.26 116.1-26.82 116.64-26.82 117.18-26.82 119.2-25.94 121.23-25.06 121.23-24.12L121.23-24.12Q121.23-23.58 120.56-22.81L120.56-22.81Q120.06-22.27 118.17-17.19ZM165.96-17.68L165.96-17.68Q172.03-13.5 179.87-11.56L179.87-11.56Q181.44-11.21 181.44-10.69 181.44-10.17 178.02-9.4 174.6-8.64 173.34-8.64L173.34-8.64Q171.31-8.64 169.88-10.06 168.44-11.47 163.94-15.43L163.94-15.43Q160.11-11.7 156.08-10.28 152.06-8.87 150.48-8.87L150.48-8.87Q149.76-8.87 149.76-9.18L149.76-9.18Q149.76-9.67 151.34-10.53L151.34-10.53Q157.72-13.95 161.15-17.82L161.15-17.82Q158.31-20.43 157.91-20.65L157.91-20.65Q156.47-19.53 154.94-18.79 153.41-18.04 152.98-18.04 152.55-18.04 152.55-18.27L152.55-18.27Q152.55-18.77 153.76-20.11L153.76-20.11Q157.09-23.8 158.6-27.43 160.11-31.05 160.11-32.17L160.11-32.17Q160.11-32.53 159.91-33.1 159.7-33.66 159.7-34.29 159.7-34.92 160.65-34.92 161.59-34.92 164-33.68 166.41-32.45 166.41-31.59L166.41-31.59Q166.41-31.14 165.6-30.6L165.6-30.6Q164.2-29.52 163.49-28.08L163.49-28.08Q162.85-26.91 162.72-26.73L162.72-26.73Q165.19-27.13 166.19-27.92 167.18-28.71 167.99-28.71 168.8-28.71 170.87-27.27 172.94-25.83 172.94-25.27 172.94-24.7 171.81-24.16L171.81-24.16Q170.32-23.45 168.53-20.97L168.53-20.97Q167.31-19.26 165.96-17.68ZM162.94-19.98L162.94-19.98Q163.71-20.88 164.59-22.36 165.47-23.85 165.47-24.34 165.47-24.84 165.01-24.84L165.01-24.84Q164.84-24.84 164-24.66 163.17-24.48 162.5-24.48 161.82-24.48 161.32-24.52L161.32-24.52Q160.34-23.13 159.62-22.32L159.62-22.32Q160.74-21.73 162.94-19.98ZM147.69-20.93L147.69-20.93Q149.35-23.67 149.35-25.11L149.35-25.11Q149.35-25.56 149.2-25.94 149.04-26.32 149.04-26.68L149.04-26.68Q149.04-27.4 149.92-27.4 150.79-27.4 152.62-26.28 154.44-25.15 154.44-24.41 154.44-23.67 153.59-22.95L153.59-22.95Q151.38-21.06 145.94-13.86L145.94-13.86Q150.12-14.8 151.81-14.8 153.5-14.8 153.5-14.22 153.5-13.63 151.6-12.96L151.6-12.96Q148.14-11.74 146.61-10.98 145.08-10.21 143.59-9.18L143.59-9.18Q142.74-8.59 142.16-8.59 141.57-8.59 140.67-10.39 139.77-12.2 139.77-12.69 139.77-13.18 140.06-13.39 140.35-13.59 141.48-13.77 142.6-13.95 143.84-15.34 145.08-16.74 146.43-18.95L146.43-18.95Q144.72-18.59 143.84-18.22 142.97-17.86 141.84-17.1L141.84-17.1Q141.3-16.74 140.83-16.74 140.35-16.74 139.34-18.29 138.33-19.84 138.33-20.38 138.33-20.93 139.77-21.15L139.77-21.15Q140.81-21.33 141.44-22.25 142.06-23.18 143.59-26.26 145.13-29.34 145.13-31.27L145.13-31.27Q145.13-32.04 144.85-32.67 144.59-33.3 144.59-33.91 144.59-34.52 145.55-34.52 146.52-34.52 148.68-33.32 150.84-32.13 150.84-31.09L150.84-31.09Q150.84-30.46 149.9-29.81 148.95-29.16 147.56-26.91L147.56-26.91Q145.71-23.58 143.64-20.93L143.64-20.93Q145.4-20.88 147.69-20.93ZM157.32-8.41L157.32-8.41Q163.44-8.91 165.1-9.72L165.1-9.72Q166.23-10.3 166.97-10.3 167.72-10.3 170.48-8.8 173.25-7.29 173.25-6.52L173.25-6.52Q173.25-6.08 172.31-5.4L172.31-5.4Q170.41-4 169.69-2.29L169.69-2.29Q171.22-1.3 171.22-0.54L171.22-0.54Q171.22 0.45 168.39 0.58L168.39 0.58 159.12 1.13Q159.03 2.29 158.67 2.61 158.31 2.92 157.63 2.92 156.96 2.92 156.49 2.21 156.01 1.48 155.84-0.32 155.66-2.11 155.09-4.14 154.53-6.17 153.94-7.04 153.36-7.92 153.36-8.35 153.36-8.78 154.4-8.78L154.4-8.78Q156.01-8.78 157.32-8.41ZM165.47-2.29L165.47-2.29Q165.96-2.88 166.28-4.16 166.59-5.44 166.59-6.01 166.59-6.57 166.34-6.77 166.09-6.97 165.44-6.97 164.79-6.97 162.85-6.75L162.85-6.75 158.72-6.21Q158.9-4.59 159.07-1.35L159.07-1.35Q163.53-1.75 165.47-2.29ZM152.73-7.79L152.73-7.79Q152.73-7.25 150.93-6.3L150.93-6.3Q145.71-3.51 144.72-2.95 143.73-2.38 142.76-1.57 141.79-0.77 141.21-0.77L141.21-0.77Q140.4-0.77 138.69-2.54 136.98-4.32 136.98-4.97 136.98-5.63 138.28-5.63L138.28-5.63 139.46-5.58Q141.75-5.58 143.06-5.94L143.06-5.94Q148.81-7.65 150.05-7.9 151.29-8.14 152.01-8.14 152.73-8.14 152.73-7.79Z" transform="translate(-4.679999828338623, 34.91999816894531)"></path></g> <!----> <!----> <!----> <!----> <!----> <!----> <!----></g></g> <g data-gra="path-slogan" fill-rule="" class="tp-slogan iconsvg-slogansvg" fill="#fe9703" transform="translate(24.395004272460938,44.29999923706055)"><!----> <!----> <g transform="scale(1, 1)"><g transform="scale(1)"><path d="M9.14-8.58L9.14 0L8.02 0L8.02-5.06Q8.02-5.77 8.02-7.22L8.02-7.22L5.58 0L4.41 0L2.02-7.22L1.97-7.22Q1.97-6.70 2.02-5.67L2.02-5.67Q2.02-5.16 2.02-5.06L2.02-5.06L2.02 0L0.84 0L0.84-8.58L2.53-8.58L5.02-1.31L7.45-8.58L9.14-8.58ZM11.02-8.58L12.19-8.58L12.19 0L11.02 0L11.02-8.58ZM15.56-8.58L19.88-1.64L19.88-8.58L21-8.58L21 0L19.69 0L15.33-6.94L15.28-6.94L15.28 0L14.16 0L14.16-8.58L15.56-8.58ZM29.20-3.61L26.58-3.61L26.58-4.59L30.33-4.59L30.33 0L29.58 0L29.30-1.08Q28.31 0.09 26.48 0.14L26.48 0.14Q24.75 0.14 23.81-0.75L23.81-0.75Q22.41-2.06 22.45-4.36L22.45-4.36Q22.78-8.63 26.53-8.81L26.53-8.81Q29.72-8.63 30.19-6L30.19-6L29.06-6Q28.59-7.78 26.48-7.83L26.48-7.83Q23.81-7.64 23.67-4.31L23.67-4.31Q23.67-0.75 26.53-0.75L26.53-0.75Q27.56-0.75 28.31-1.31L28.31-1.31Q29.25-2.06 29.20-3.61L29.20-3.61ZM37.64-3.89L33.42-3.89L33.42 0L32.25 0L32.25-8.58L38.20-8.58L38.20-7.59L33.42-7.59L33.42-4.92L37.64-4.92L37.64-3.89ZM40.69-1.03L45.84-1.03L45.84 0L39.52 0L39.52-8.58L45.75-8.58L45.75-7.59L40.69-7.59L40.69-4.92L45.38-4.92L45.38-3.89L40.69-3.89L40.69-1.03ZM48.75-8.58L53.06-1.64L53.06-8.58L54.19-8.58L54.19 0L52.88 0L48.52-6.94L48.47-6.94L48.47 0L47.34 0L47.34-8.58L48.75-8.58ZM62.39-3.61L59.77-3.61L59.77-4.59L63.52-4.59L63.52 0L62.77 0L62.48-1.08Q61.50 0.09 59.67 0.14L59.67 0.14Q57.94 0.14 57-0.75L57-0.75Q55.59-2.06 55.64-4.36L55.64-4.36Q55.97-8.63 59.72-8.81L59.72-8.81Q62.91-8.63 63.38-6L63.38-6L62.25-6Q61.78-7.78 59.67-7.83L59.67-7.83Q57-7.64 56.86-4.31L56.86-4.31Q56.86-0.75 59.72-0.75L59.72-0.75Q60.75-0.75 61.50-1.31L61.50-1.31Q62.44-2.06 62.39-3.61L62.39-3.61ZM70.03-8.58L74.34-1.64L74.34-8.58L75.47-8.58L75.47 0L74.16 0L69.80-6.94L69.75-6.94L69.75 0L68.63 0L68.63-8.58L70.03-8.58ZM78.56-1.03L83.72-1.03L83.72 0L77.39 0L77.39-8.58L83.63-8.58L83.63-7.59L78.56-7.59L78.56-4.92L83.25-4.92L83.25-3.89L78.56-3.89L78.56-1.03ZM87.42-7.59L84.52-7.59L84.52-8.58L91.45-8.58L91.45-7.59L88.55-7.59L88.55 0L87.42 0L87.42-7.59ZM97.27-7.13L97.22-7.13L95.25 0L94.03 0L91.78-8.58L93-8.58L94.64-1.59L94.69-1.59L96.61-8.58L97.88-8.58L99.80-1.59L99.84-1.59L101.44-8.58L102.70-8.58L100.45 0L99.23 0L97.27-7.13ZM110.58-4.27L110.58-4.27Q110.39-7.64 107.58-7.83L107.58-7.83Q104.72-7.69 104.58-4.27L104.58-4.27Q104.72-0.94 107.58-0.80L107.58-0.80Q110.39-0.98 110.58-4.27ZM111.75-4.27L111.75-4.27Q111.47 0 107.58 0.14L107.58 0.14Q103.64 0 103.36-4.27L103.36-4.27Q103.59-8.72 107.58-8.81L107.58-8.81Q111.47-8.67 111.75-4.27ZM117.23-3.70L114.42-3.70L114.42 0L113.25 0L113.25-8.58L117.23-8.58Q120.09-8.58 120.09-6.28L120.09-6.28Q120.09-4.88 118.88-4.22L118.88-4.22Q119.91-3.94 119.91-2.58L119.91-2.58L120-1.03Q119.95-0.38 120.42-0.19L120.42-0.19L120.42 0L118.97 0Q118.83-0.61 118.78-2.16L118.78-2.16Q118.83-3.70 117.23-3.70L117.23-3.70ZM117.33-7.64L114.42-7.64L114.42-4.69L117.14-4.69Q118.88-4.69 118.88-6.19L118.88-6.19Q118.88-7.64 117.33-7.64L117.33-7.64ZM124.27-4.31L122.91-3.05L122.91 0L121.73 0L121.73-8.58L122.91-8.58L122.91-4.41L127.08-8.58L128.72-8.58L125.11-5.11L128.81 0L127.27 0L124.27-4.31Z" transform="translate(-0.84375, 8.8125)"></path></g></g></g></g></g><defs v-gra="od"></defs></svg>